#N canvas 66 22 756 464 16;
#X obj 52 39 inlet~;
#X obj 52 219 +~;
#X obj 132 184 *~;
#X obj 132 39 inlet;
#X text 52 20 sound;
#X text 136 18 time;
#X obj 192 261 outlet~;
#X text 303 17 gain;
#X obj 132 85 pack 0 50;
#X obj 132 114 line~;
#X obj 132 149 vd~ \$0-allpassfilter;
#X obj 299 39 inlet;
#X obj 192 219 +~;
#X obj 272 184 *~;
#X obj 299 85 * -1;
#X obj 52 299 delwrite~ \$0-allpassfilter 200;
#X connect 0 0 1 0;
#X connect 1 0 13 0;
#X connect 1 0 15 0;
#X connect 2 0 1 1;
#X connect 3 0 8 0;
#X connect 8 0 9 0;
#X connect 9 0 10 0;
#X connect 10 0 2 0;
#X connect 10 0 12 0;
#X connect 11 0 14 0;
#X connect 11 0 2 1;
#X connect 12 0 6 0;
#X connect 13 0 12 1;
#X connect 14 0 13 1;
