#N canvas 4 23 1142 697 16;
#X obj 145 87 readsf~ 2;
#X obj 145 -5 openpanel;
#X obj 145 -30 bng 15 250 50 0 empty empty empty 0 -6 0 8 -262144 -1
-1;
#X text 171 -29 load a sample;
#X msg 145 37 open \$1;
#X msg 244 37 start;
#X obj 145 459 *~;
#X floatatom 172 408 5 0 0 0 - - -, f 5;
#X obj 215 459 *~;
#X floatatom 242 408 5 0 0 0 - - -, f 5;
#X obj 242 320 / 127;
#X obj 242 367 expr abs($f1 - 1);
#X obj 639 347 s~ \$0-decay;
#X obj 639 410 / 127;
#N canvas 64 23 1276 703 test 0;
#X obj 22 353 wrap;
#X floatatom 22 288 5 0 90 0 - - -, f 5;
#X obj 22 398 * 6.28319;
#X obj 22 326 / 360;
#X msg 22 254 45;
#X obj 22 219 loadbang;
#X obj 273 448 *~;
#X obj 320 449 *~;
#X obj 273 491 -~;
#X obj 423 452 *~;
#X obj 470 453 *~;
#X obj 423 492 +~;
#X obj 573 452 *~;
#X obj 620 452 *~;
#X obj 573 494 -~;
#X obj 723 452 *~;
#X obj 770 452 *~;
#X obj 723 492 +~;
#X obj 212 141 inlet~;
#X obj 212 239 +~;
#X obj 239 205 *~;
#X obj 735 172 *~;
#X obj 735 239 rpole~;
#X obj 735 206 *~;
#X obj 273 598 *~;
#X obj 320 599 *~;
#X obj 273 641 -~;
#X obj 423 602 *~;
#X obj 470 603 *~;
#X obj 423 642 +~;
#X obj 573 602 *~;
#X obj 620 602 *~;
#X obj 573 644 -~;
#X obj 723 602 *~;
#X obj 770 602 *~;
#X obj 723 642 +~;
#X obj 383 725 outlet~;
#X obj 472 239 +~;
#X obj 499 205 *~;
#X obj 273 694 s~ branch1;
#X obj 723 694 s~ branch4;
#X obj 573 694 s~ branch3;
#X obj 423 694 s~ branch2;
#X obj 239 74 r~ branch1;
#X obj 433 74 r~ branch2;
#X obj 583 74 r~ branch3;
#X obj 985 74 r~ branch4;
#X obj 526 171 r~ \$0-decay;
#X obj 995 172 *~;
#X obj 995 239 rpole~;
#X obj 995 206 *~;
#X obj 1022 141 r~ \$0-decay;
#X obj 762 141 r~ \$0-decay;
#X obj 266 171 r~ \$0-decay;
#X obj 383 694 +~;
#X obj 300 382 r~ cos;
#X obj 450 382 r~ cos;
#X obj 600 382 r~ cos;
#X obj 750 382 r~ cos;
#X obj 300 532 r~ cos;
#X obj 450 532 r~ cos;
#X obj 600 532 r~ cos;
#X obj 750 532 r~ cos;
#X obj 372 382 r~ sin;
#X obj 522 382 r~ sin;
#X obj 672 382 r~ sin;
#X obj 822 382 r~ sin;
#X obj 822 532 r~ sin;
#X obj 672 532 r~ sin;
#X obj 522 532 r~ sin;
#X obj 372 532 r~ sin;
#X obj 22 592 s~ cos;
#X obj 132 592 s~ sin;
#X obj 132 445 sin;
#X obj 22 445 cos;
#X obj 22 499 pack 0 200;
#X obj 22 539 line~;
#X obj 132 499 pack 0 200;
#X obj 132 539 line~;
#X obj 777 172 r \$0-low-saturation;
#X obj 1037 172 r \$0-low-saturation;
#X obj 792 206 r \$0-damping;
#X obj 1052 206 r \$0-damping;
#X obj 472 141 inlet~;
#X obj 683 725 outlet~;
#X obj 683 694 +~;
#X obj 273 341 vd~ \$0-branch1 41;
#X obj 421 311 vd~ \$0-branch2 67;
#X obj 573 341 vd~ \$0-branch3 101;
#X obj 723 311 vd~ \$0-branch4 137;
#X floatatom 1056 406 5 1 1035 0 - - -, f 5;
#X obj 1056 564 pack 0 200;
#X obj 1056 604 line~;
#X obj 1166 564 pack 0 200;
#X obj 1166 604 line~;
#X obj 946 564 pack 0 200;
#X obj 946 604 line~;
#X obj 1276 564 pack 0 200;
#X obj 1276 604 line~;
#X obj 946 482 * 2;
#X obj 1166 482 * 4;
#X obj 1056 524 + 2;
#X obj 946 524 + 9;
#X obj 1166 514 + 19;
#X obj 1276 514 + 4;
#X obj 1056 377 r size;
#X obj 212 273 delwrite~ \$0-branch1 2000;
#X obj 472 273 delwrite~ \$0-branch2 2000;
#X obj 735 273 delwrite~ \$0-branch3 2000;
#X obj 995 273 delwrite~ \$0-branch4 2000;
#X floatatom 85 549 5 0 0 0 - - -, f 5;
#X floatatom 195 549 5 0 0 0 - - -, f 5;
#X obj 93 254 r spread;
#X connect 0 0 2 0;
#X connect 1 0 3 0;
#X connect 2 0 73 0;
#X connect 2 0 74 0;
#X connect 3 0 0 0;
#X connect 4 0 1 0;
#X connect 5 0 4 0;
#X connect 6 0 8 0;
#X connect 7 0 8 1;
#X connect 8 0 24 0;
#X connect 8 0 28 0;
#X connect 9 0 11 0;
#X connect 10 0 11 1;
#X connect 11 0 30 0;
#X connect 11 0 34 0;
#X connect 12 0 14 0;
#X connect 13 0 14 1;
#X connect 14 0 25 0;
#X connect 14 0 27 0;
#X connect 15 0 17 0;
#X connect 16 0 17 1;
#X connect 17 0 31 0;
#X connect 17 0 33 0;
#X connect 18 0 19 0;
#X connect 19 0 106 0;
#X connect 20 0 19 1;
#X connect 21 0 23 0;
#X connect 22 0 108 0;
#X connect 23 0 22 0;
#X connect 24 0 26 0;
#X connect 25 0 26 1;
#X connect 26 0 39 0;
#X connect 26 0 54 0;
#X connect 27 0 29 0;
#X connect 28 0 29 1;
#X connect 29 0 42 0;
#X connect 29 0 54 1;
#X connect 30 0 32 0;
#X connect 31 0 32 1;
#X connect 32 0 41 0;
#X connect 32 0 85 0;
#X connect 33 0 35 0;
#X connect 34 0 35 1;
#X connect 35 0 40 0;
#X connect 35 0 85 1;
#X connect 37 0 107 0;
#X connect 38 0 37 1;
#X connect 43 0 20 0;
#X connect 44 0 21 0;
#X connect 45 0 38 0;
#X connect 46 0 48 0;
#X connect 47 0 38 1;
#X connect 48 0 50 0;
#X connect 49 0 109 0;
#X connect 50 0 49 0;
#X connect 51 0 48 1;
#X connect 52 0 21 1;
#X connect 53 0 20 1;
#X connect 54 0 36 0;
#X connect 55 0 6 1;
#X connect 56 0 9 1;
#X connect 57 0 12 1;
#X connect 58 0 15 1;
#X connect 59 0 24 1;
#X connect 60 0 27 1;
#X connect 61 0 30 1;
#X connect 62 0 33 1;
#X connect 63 0 7 1;
#X connect 64 0 10 1;
#X connect 65 0 13 1;
#X connect 66 0 16 1;
#X connect 67 0 34 1;
#X connect 68 0 31 1;
#X connect 69 0 28 1;
#X connect 70 0 25 1;
#X connect 73 0 77 0;
#X connect 74 0 75 0;
#X connect 75 0 76 0;
#X connect 75 0 110 0;
#X connect 76 0 71 0;
#X connect 77 0 78 0;
#X connect 77 0 111 0;
#X connect 78 0 72 0;
#X connect 79 0 23 1;
#X connect 80 0 50 1;
#X connect 81 0 22 1;
#X connect 82 0 49 1;
#X connect 83 0 37 0;
#X connect 85 0 84 0;
#X connect 86 0 6 0;
#X connect 86 0 10 0;
#X connect 87 0 7 0;
#X connect 87 0 9 0;
#X connect 88 0 12 0;
#X connect 88 0 16 0;
#X connect 89 0 15 0;
#X connect 89 0 13 0;
#X connect 90 0 99 0;
#X connect 90 0 100 0;
#X connect 91 0 92 0;
#X connect 92 0 86 0;
#X connect 93 0 94 0;
#X connect 94 0 88 0;
#X connect 95 0 96 0;
#X connect 96 0 87 0;
#X connect 97 0 98 0;
#X connect 98 0 89 0;
#X connect 99 0 102 0;
#X connect 100 0 103 0;
#X connect 101 0 91 0;
#X connect 102 0 95 0;
#X connect 102 0 101 0;
#X connect 103 0 93 0;
#X connect 103 0 104 0;
#X connect 104 0 97 0;
#X connect 105 0 90 0;
#X connect 112 0 1 0;
#X restore 145 289 pd test;
#X obj 639 442 clip 0 1;
#X obj 639 473 - 1;
#X obj 639 507 * -1;
#X obj 639 541 s \$0-low-saturation;
#X obj 704 476 s \$0-damping;
#X obj 639 98 / 127;
#X obj 639 256 sin;
#X floatatom 639 168 0 0 0 0 - - -;
#X obj 639 228 * 6.28319;
#X obj 639 198 / 360;
#X obj 345 459 *~;
#X floatatom 372 408 5 0 0 0 - - -, f 5;
#X obj 415 459 *~;
#X floatatom 442 408 5 0 0 0 - - -, f 5;
#X obj 442 367 expr abs($f1 - 1);
#N canvas 294 23 739 703 allpassfilter 0;
#X obj 114 -300 loadbang;
#X obj 46 -333 inlet~;
#X obj 276 -333 inlet~;
#X obj 46 97 outlet~;
#X obj 276 97 outlet~;
#X obj 344 -300 loadbang;
#X obj 114 -200 loadbang;
#X obj 344 -200 loadbang;
#X obj 114 -100 loadbang;
#X obj 344 -100 loadbang;
#X obj 114 0 loadbang;
#X obj 46 65 allpassfilter~;
#X obj 344 0 loadbang;
#X obj 456 -333 inlet;
#X msg 114 -266 4.771;
#X msg 344 -266 4.771;
#X msg 114 -166 3.595;
#X msg 344 -166 3.595;
#X msg 114 -66 9.307;
#X msg 344 -66 9.307;
#X msg 114 34 12.73;
#X msg 344 34 12.73;
#X obj 46 -235 allpassfilter~;
#X obj 276 -235 allpassfilter~;
#X obj 46 -135 allpassfilter~;
#X obj 276 -135 allpassfilter~;
#X obj 46 -35 allpassfilter~;
#X obj 276 -35 allpassfilter~;
#X obj 276 65 allpassfilter~;
#X connect 0 0 14 0;
#X connect 1 0 22 0;
#X connect 2 0 23 0;
#X connect 5 0 15 0;
#X connect 6 0 16 0;
#X connect 7 0 17 0;
#X connect 8 0 18 0;
#X connect 9 0 19 0;
#X connect 10 0 20 0;
#X connect 11 0 3 0;
#X connect 12 0 21 0;
#X connect 13 0 11 2;
#X connect 13 0 22 2;
#X connect 13 0 23 2;
#X connect 13 0 24 2;
#X connect 13 0 25 2;
#X connect 13 0 26 2;
#X connect 13 0 27 2;
#X connect 13 0 28 2;
#X connect 14 0 22 1;
#X connect 15 0 23 1;
#X connect 16 0 24 1;
#X connect 17 0 25 1;
#X connect 18 0 26 1;
#X connect 19 0 27 1;
#X connect 20 0 11 1;
#X connect 21 0 28 1;
#X connect 22 0 24 0;
#X connect 23 0 25 0;
#X connect 24 0 26 0;
#X connect 25 0 27 0;
#X connect 26 0 11 0;
#X connect 27 0 28 0;
#X connect 28 0 4 0;
#X restore 145 245 pd allpassfilter;
#X obj 639 317 line~;
#X obj 639 287 pack 0 20;
#X obj 856 541 s size;
#X obj 856 480 / 127;
#X floatatom 756 283 5 0 0 0 - - -, f 5;
#X obj 856 259 s spread;
#X obj 856 170 / 127;
#X obj 856 202 * 90;
#X obj 639 136 * 90;
#X floatatom 886 233 5 0 0 0 - - -, f 5;
#X obj 856 512 * 41;
#X floatatom 242 292 5 0 127 0 - - -, f 5;
#X floatatom 639 382 5 0 127 0 - - -, f 5;
#X floatatom 856 452 5 0 127 0 - - -, f 5;
#X floatatom 639 62 5 0 127 0 - - -, f 5;
#X floatatom 856 142 5 0 127 0 - - -, f 5;
#X text 636 568 Frequency Response;
#X text 853 568 Room Size;
#X text 753 348 Reverb Decay;
#X text 853 288 Stereo Spreading Angle;
#X obj 145 602 dac~;
#X obj 345 602 dac~;
#X text 465 434 lopass;
#X text 535 434 hipass;
#N canvas 246 22 1032 588 EQ 0;
#N canvas 4 22 1276 703 using 0;
#X obj 196 159 outlet~;
#X obj 284 319 outlet~;
#X obj 316 567 outlet~;
#X obj 196 80 biquad~ 1.86972 -0.872325 0.000650245 0.00130049 0.000650245
;
#X text 315 59 lo x3;
#X obj 196 100 biquad~ 1.86972 -0.872325 0.000650245 0.00130049 0.000650245
;
#X obj 196 120 biquad~ 1.86972 -0.872325 0.000650245 0.00130049 0.000650245
;
#X obj 284 242 biquad~ 1.36591 -0.385279 0.307361 0 -0.307361;
#X text 419 222 mid x3;
#X obj 284 262 biquad~ 1.36591 -0.385279 0.307361 0 -0.307361;
#X obj 284 282 biquad~ 1.36591 -0.385279 0.307361 0 -0.307361;
#X obj 316 511 biquad~ 1.63386 -0.729864 0.840931 -1.68186 0.840931
;
#X text 536 489 hi x2;
#X obj 316 531 biquad~ 1.63386 -0.729864 0.840931 -1.68186 0.840931
;
#X obj 125 25 inlet~;
#X connect 3 0 5 0;
#X connect 5 0 6 0;
#X connect 6 0 0 0;
#X connect 7 0 9 0;
#X connect 9 0 10 0;
#X connect 10 0 1 0;
#X connect 11 0 13 0;
#X connect 13 0 2 0;
#X connect 14 0 3 0;
#X connect 14 0 7 0;
#X connect 14 0 11 0;
#X restore 220 310 pd using GGEE filter objects;
#N canvas 362 92 528 469 output_mixer 0;
#X obj 71 -19 inlet~ bass;
#X obj 211 -19 inlet~ mids;
#X obj 347 -19 inlet~ highs;
#X obj 98 35 inlet bass;
#X obj 238 36 inlet mids;
#X obj 374 36 inlet highs;
#X obj 71 127 outlet~;
#X obj 211 75 *~;
#X obj 347 75 *~;
#X obj 71 75 *~;
#X connect 0 0 9 0;
#X connect 1 0 7 0;
#X connect 2 0 8 0;
#X connect 3 0 9 1;
#X connect 4 0 7 1;
#X connect 5 0 8 1;
#X connect 7 0 6 0;
#X connect 8 0 6 0;
#X connect 9 0 6 0;
#X restore 220 366 pd output_mixer;
#X obj 521 186 * 0.5;
#X obj 446 186 * 0.5;
#X obj 521 274 +;
#X obj 521 224 t b f;
#X obj 220 261 inlet~;
#X obj 220 398 outlet~;
#X floatatom 521 150 5 0 1 0 - - -, f 5;
#X floatatom 446 150 5 0 1 0 - - -, f 5;
#X floatatom 521 310 5 0 1 0 - - -, f 5;
#X obj 446 106 inlet;
#X obj 521 106 inlet;
#X connect 0 0 1 0;
#X connect 0 1 1 2;
#X connect 0 2 1 4;
#X connect 1 0 7 0;
#X connect 2 0 5 0;
#X connect 3 0 4 0;
#X connect 4 0 10 0;
#X connect 5 0 4 0;
#X connect 5 1 4 1;
#X connect 6 0 0 0;
#X connect 8 0 1 5;
#X connect 8 0 2 0;
#X connect 9 0 1 1;
#X connect 9 0 3 0;
#X connect 10 0 1 3;
#X connect 11 0 9 0;
#X connect 12 0 8 0;
#X restore 145 547 pd EQ;
#N canvas 246 22 1032 588 EQ 0;
#N canvas 4 22 1276 756 using 0;
#X obj 196 159 outlet~;
#X obj 284 319 outlet~;
#X obj 316 567 outlet~;
#X obj 196 80 biquad~ 1.86972 -0.872325 0.000650245 0.00130049 0.000650245
;
#X text 315 59 lo x3;
#X obj 196 100 biquad~ 1.86972 -0.872325 0.000650245 0.00130049 0.000650245
;
#X obj 196 120 biquad~ 1.86972 -0.872325 0.000650245 0.00130049 0.000650245
;
#X obj 284 242 biquad~ 1.36591 -0.385279 0.307361 0 -0.307361;
#X text 419 222 mid x3;
#X obj 284 262 biquad~ 1.36591 -0.385279 0.307361 0 -0.307361;
#X obj 284 282 biquad~ 1.36591 -0.385279 0.307361 0 -0.307361;
#X obj 316 511 biquad~ 1.63386 -0.729864 0.840931 -1.68186 0.840931
;
#X text 536 489 hi x2;
#X obj 316 531 biquad~ 1.63386 -0.729864 0.840931 -1.68186 0.840931
;
#X obj 125 25 inlet~;
#X connect 3 0 5 0;
#X connect 5 0 6 0;
#X connect 6 0 0 0;
#X connect 7 0 9 0;
#X connect 9 0 10 0;
#X connect 10 0 1 0;
#X connect 11 0 13 0;
#X connect 13 0 2 0;
#X connect 14 0 3 0;
#X connect 14 0 7 0;
#X connect 14 0 11 0;
#X restore 220 310 pd using GGEE filter objects;
#N canvas 362 92 528 469 output_mixer 0;
#X obj 71 -19 inlet~ bass;
#X obj 211 -19 inlet~ mids;
#X obj 347 -19 inlet~ highs;
#X obj 98 35 inlet bass;
#X obj 238 36 inlet mids;
#X obj 374 36 inlet highs;
#X obj 71 127 outlet~;
#X obj 211 75 *~;
#X obj 347 75 *~;
#X obj 71 75 *~;
#X connect 0 0 9 0;
#X connect 1 0 7 0;
#X connect 2 0 8 0;
#X connect 3 0 9 1;
#X connect 4 0 7 1;
#X connect 5 0 8 1;
#X connect 7 0 6 0;
#X connect 8 0 6 0;
#X connect 9 0 6 0;
#X restore 220 366 pd output_mixer;
#X obj 521 186 * 0.5;
#X obj 446 186 * 0.5;
#X obj 521 274 +;
#X obj 521 224 t b f;
#X obj 220 261 inlet~;
#X obj 220 398 outlet~;
#X floatatom 521 150 5 0 1 0 - - -, f 5;
#X floatatom 446 150 5 0 1 0 - - -, f 5;
#X floatatom 521 310 5 0 1 0 - - -, f 5;
#X obj 446 106 inlet;
#X obj 521 106 inlet;
#X connect 0 0 1 0;
#X connect 0 1 1 2;
#X connect 0 2 1 4;
#X connect 1 0 7 0;
#X connect 2 0 5 0;
#X connect 3 0 4 0;
#X connect 4 0 10 0;
#X connect 5 0 4 0;
#X connect 5 1 4 1;
#X connect 6 0 0 0;
#X connect 8 0 1 5;
#X connect 8 0 2 0;
#X connect 9 0 1 1;
#X connect 9 0 3 0;
#X connect 10 0 1 3;
#X connect 11 0 9 0;
#X connect 12 0 8 0;
#X restore 215 547 pd EQ;
#X obj 473 488 / 96;
#X obj 543 488 / 96;
#X floatatom 473 460 5 0 96 0 - - -, f 5;
#X floatatom 543 460 5 0 96 0 - - -, f 5;
#N canvas 246 22 1032 588 EQ 0;
#N canvas 4 22 1276 703 using 0;
#X obj 196 159 outlet~;
#X obj 284 319 outlet~;
#X obj 316 567 outlet~;
#X obj 196 80 biquad~ 1.86972 -0.872325 0.000650245 0.00130049 0.000650245
;
#X text 315 59 lo x3;
#X obj 196 100 biquad~ 1.86972 -0.872325 0.000650245 0.00130049 0.000650245
;
#X obj 196 120 biquad~ 1.86972 -0.872325 0.000650245 0.00130049 0.000650245
;
#X obj 284 242 biquad~ 1.36591 -0.385279 0.307361 0 -0.307361;
#X text 419 222 mid x3;
#X obj 284 262 biquad~ 1.36591 -0.385279 0.307361 0 -0.307361;
#X obj 284 282 biquad~ 1.36591 -0.385279 0.307361 0 -0.307361;
#X obj 316 511 biquad~ 1.63386 -0.729864 0.840931 -1.68186 0.840931
;
#X text 536 489 hi x2;
#X obj 316 531 biquad~ 1.63386 -0.729864 0.840931 -1.68186 0.840931
;
#X obj 125 25 inlet~;
#X connect 3 0 5 0;
#X connect 5 0 6 0;
#X connect 6 0 0 0;
#X connect 7 0 9 0;
#X connect 9 0 10 0;
#X connect 10 0 1 0;
#X connect 11 0 13 0;
#X connect 13 0 2 0;
#X connect 14 0 3 0;
#X connect 14 0 7 0;
#X connect 14 0 11 0;
#X restore 220 310 pd using GGEE filter objects;
#N canvas 362 92 528 469 output_mixer 0;
#X obj 71 -19 inlet~ bass;
#X obj 211 -19 inlet~ mids;
#X obj 347 -19 inlet~ highs;
#X obj 98 35 inlet bass;
#X obj 238 36 inlet mids;
#X obj 374 36 inlet highs;
#X obj 71 127 outlet~;
#X obj 211 75 *~;
#X obj 347 75 *~;
#X obj 71 75 *~;
#X connect 0 0 9 0;
#X connect 1 0 7 0;
#X connect 2 0 8 0;
#X connect 3 0 9 1;
#X connect 4 0 7 1;
#X connect 5 0 8 1;
#X connect 7 0 6 0;
#X connect 8 0 6 0;
#X connect 9 0 6 0;
#X restore 220 366 pd output_mixer;
#X obj 521 186 * 0.5;
#X obj 446 186 * 0.5;
#X obj 521 274 +;
#X obj 521 224 t b f;
#X obj 220 261 inlet~;
#X obj 220 398 outlet~;
#X floatatom 521 150 5 0 1 0 - - -, f 5;
#X floatatom 446 150 5 0 1 0 - - -, f 5;
#X floatatom 521 310 5 0 1 0 - - -, f 5;
#X obj 446 106 inlet;
#X obj 521 106 inlet;
#X connect 0 0 1 0;
#X connect 0 1 1 2;
#X connect 0 2 1 4;
#X connect 1 0 7 0;
#X connect 2 0 5 0;
#X connect 3 0 4 0;
#X connect 4 0 10 0;
#X connect 5 0 4 0;
#X connect 5 1 4 1;
#X connect 6 0 0 0;
#X connect 8 0 1 5;
#X connect 8 0 2 0;
#X connect 9 0 1 1;
#X connect 9 0 3 0;
#X connect 10 0 1 3;
#X connect 11 0 9 0;
#X connect 12 0 8 0;
#X restore 345 547 pd EQ;
#N canvas 246 22 1032 588 EQ 0;
#N canvas 4 22 1276 756 using 0;
#X obj 196 159 outlet~;
#X obj 284 319 outlet~;
#X obj 316 567 outlet~;
#X obj 196 80 biquad~ 1.86972 -0.872325 0.000650245 0.00130049 0.000650245
;
#X text 315 59 lo x3;
#X obj 196 100 biquad~ 1.86972 -0.872325 0.000650245 0.00130049 0.000650245
;
#X obj 196 120 biquad~ 1.86972 -0.872325 0.000650245 0.00130049 0.000650245
;
#X obj 284 242 biquad~ 1.36591 -0.385279 0.307361 0 -0.307361;
#X text 419 222 mid x3;
#X obj 284 262 biquad~ 1.36591 -0.385279 0.307361 0 -0.307361;
#X obj 284 282 biquad~ 1.36591 -0.385279 0.307361 0 -0.307361;
#X obj 316 511 biquad~ 1.63386 -0.729864 0.840931 -1.68186 0.840931
;
#X text 536 489 hi x2;
#X obj 316 531 biquad~ 1.63386 -0.729864 0.840931 -1.68186 0.840931
;
#X obj 125 25 inlet~;
#X connect 3 0 5 0;
#X connect 5 0 6 0;
#X connect 6 0 0 0;
#X connect 7 0 9 0;
#X connect 9 0 10 0;
#X connect 10 0 1 0;
#X connect 11 0 13 0;
#X connect 13 0 2 0;
#X connect 14 0 3 0;
#X connect 14 0 7 0;
#X connect 14 0 11 0;
#X restore 220 310 pd using GGEE filter objects;
#N canvas 362 92 528 469 output_mixer 0;
#X obj 71 -19 inlet~ bass;
#X obj 211 -19 inlet~ mids;
#X obj 347 -19 inlet~ highs;
#X obj 98 35 inlet bass;
#X obj 238 36 inlet mids;
#X obj 374 36 inlet highs;
#X obj 71 127 outlet~;
#X obj 211 75 *~;
#X obj 347 75 *~;
#X obj 71 75 *~;
#X connect 0 0 9 0;
#X connect 1 0 7 0;
#X connect 2 0 8 0;
#X connect 3 0 9 1;
#X connect 4 0 7 1;
#X connect 5 0 8 1;
#X connect 7 0 6 0;
#X connect 8 0 6 0;
#X connect 9 0 6 0;
#X restore 220 366 pd output_mixer;
#X obj 521 186 * 0.5;
#X obj 446 186 * 0.5;
#X obj 521 274 +;
#X obj 521 224 t b f;
#X obj 220 261 inlet~;
#X obj 220 398 outlet~;
#X floatatom 521 150 5 0 1 0 - - -, f 5;
#X floatatom 446 150 5 0 1 0 - - -, f 5;
#X floatatom 521 310 5 0 1 0 - - -, f 5;
#X obj 446 106 inlet;
#X obj 521 106 inlet;
#X connect 0 0 1 0;
#X connect 0 1 1 2;
#X connect 0 2 1 4;
#X connect 1 0 7 0;
#X connect 2 0 5 0;
#X connect 3 0 4 0;
#X connect 4 0 10 0;
#X connect 5 0 4 0;
#X connect 5 1 4 1;
#X connect 6 0 0 0;
#X connect 8 0 1 5;
#X connect 8 0 2 0;
#X connect 9 0 1 1;
#X connect 9 0 3 0;
#X connect 10 0 1 3;
#X connect 11 0 9 0;
#X connect 12 0 8 0;
#X restore 415 547 pd EQ;
#X obj 145 504 +~;
#X obj 345 504 +~;
#X obj 372 180 / 127;
#X floatatom 372 142 5 0 127 0 - - -, f 5;
#X msg 372 103 loadbang;
#X msg 444 149 120;
#X connect 0 0 8 0;
#X connect 0 0 30 0;
#X connect 0 1 27 0;
#X connect 0 1 30 1;
#X connect 1 0 4 0;
#X connect 2 0 1 0;
#X connect 4 0 0 0;
#X connect 5 0 0 0;
#X connect 6 0 63 0;
#X connect 7 0 6 1;
#X connect 8 0 63 1;
#X connect 9 0 8 1;
#X connect 10 0 9 0;
#X connect 10 0 11 0;
#X connect 10 0 28 0;
#X connect 10 0 29 0;
#X connect 11 0 7 0;
#X connect 13 0 15 0;
#X connect 14 0 6 0;
#X connect 14 1 25 0;
#X connect 15 0 16 0;
#X connect 15 0 19 0;
#X connect 16 0 17 0;
#X connect 17 0 18 0;
#X connect 20 0 39 0;
#X connect 21 0 32 0;
#X connect 21 0 35 0;
#X connect 22 0 24 0;
#X connect 23 0 21 0;
#X connect 24 0 23 0;
#X connect 25 0 64 0;
#X connect 26 0 25 1;
#X connect 27 0 64 1;
#X connect 28 0 27 1;
#X connect 29 0 26 0;
#X connect 30 0 14 0;
#X connect 30 1 14 1;
#X connect 31 0 12 0;
#X connect 32 0 31 0;
#X connect 34 0 41 0;
#X connect 37 0 38 0;
#X connect 38 0 40 0;
#X connect 38 0 36 0;
#X connect 39 0 22 0;
#X connect 41 0 33 0;
#X connect 42 0 10 0;
#X connect 43 0 13 0;
#X connect 44 0 34 0;
#X connect 45 0 20 0;
#X connect 46 0 37 0;
#X connect 55 0 51 0;
#X connect 56 0 51 0;
#X connect 57 0 55 1;
#X connect 57 0 56 1;
#X connect 57 0 61 1;
#X connect 57 0 62 1;
#X connect 58 0 55 2;
#X connect 58 0 56 2;
#X connect 58 0 62 2;
#X connect 58 0 61 2;
#X connect 59 0 57 0;
#X connect 60 0 58 0;
#X connect 61 0 52 1;
#X connect 62 0 52 1;
#X connect 63 0 55 0;
#X connect 63 0 56 0;
#X connect 64 0 61 0;
#X connect 64 0 62 0;
#X connect 65 0 30 2;
#X connect 66 0 65 0;
#X connect 67 0 68 0;
#X connect 68 0 66 0;
