#N canvas 259 119 1276 722 16;
#X obj 246 474 s~ \$0-decay;
#N canvas 84 107 1276 703 test 1;
#X obj 22 353 wrap;
#X floatatom 22 288 5 0 90 0 - - -, f 5;
#X obj 22 398 * 6.28319;
#X obj 22 326 / 360;
#X msg 22 254 45;
#X obj 22 219 loadbang;
#X obj 273 448 *~;
#X obj 320 449 *~;
#X obj 273 491 -~;
#X obj 423 452 *~;
#X obj 470 453 *~;
#X obj 423 492 +~;
#X obj 573 452 *~;
#X obj 620 452 *~;
#X obj 573 494 -~;
#X obj 723 452 *~;
#X obj 770 452 *~;
#X obj 723 492 +~;
#X obj 212 61 inlet~;
#X obj 212 239 +~;
#X obj 239 125 *~;
#X obj 735 172 *~;
#X obj 735 239 rpole~;
#X obj 735 206 *~;
#X obj 273 598 *~;
#X obj 320 599 *~;
#X obj 273 641 -~;
#X obj 423 602 *~;
#X obj 470 603 *~;
#X obj 423 642 +~;
#X obj 573 602 *~;
#X obj 620 602 *~;
#X obj 573 644 -~;
#X obj 723 602 *~;
#X obj 770 602 *~;
#X obj 723 642 +~;
#X obj 383 725 outlet~;
#X obj 472 239 +~;
#X obj 499 125 *~;
#X obj 273 694 s~ branch1;
#X obj 723 694 s~ branch4;
#X obj 573 694 s~ branch3;
#X obj 423 694 s~ branch2;
#X obj 239 -6 r~ branch1;
#X obj 433 -6 r~ branch2;
#X obj 583 -6 r~ branch3;
#X obj 995 -6 r~ branch4;
#X obj 526 91 r~ \$0-decay;
#X obj 995 172 *~;
#X obj 995 239 rpole~;
#X obj 995 206 *~;
#X obj 1022 141 r~ \$0-decay;
#X obj 762 141 r~ \$0-decay;
#X obj 266 91 r~ \$0-decay;
#X obj 383 694 +~;
#X obj 300 382 r~ cos;
#X obj 450 382 r~ cos;
#X obj 600 382 r~ cos;
#X obj 750 382 r~ cos;
#X obj 300 532 r~ cos;
#X obj 450 532 r~ cos;
#X obj 600 532 r~ cos;
#X obj 750 532 r~ cos;
#X obj 372 382 r~ sin;
#X obj 522 382 r~ sin;
#X obj 672 382 r~ sin;
#X obj 822 382 r~ sin;
#X obj 822 532 r~ sin;
#X obj 672 532 r~ sin;
#X obj 522 532 r~ sin;
#X obj 372 532 r~ sin;
#X obj 22 592 s~ cos;
#X obj 132 592 s~ sin;
#X obj 132 445 sin;
#X obj 22 445 cos;
#X obj 22 499 pack 0 200;
#X obj 22 539 line~;
#X obj 132 499 pack 0 200;
#X obj 132 539 line~;
#X obj 777 172 r \$0-low-saturation;
#X obj 1037 172 r \$0-low-saturation;
#X obj 792 206 r \$0-damping;
#X obj 1052 206 r \$0-damping;
#X obj 472 61 inlet~;
#X obj 683 725 outlet~;
#X obj 683 694 +~;
#X obj 273 341 vd~ \$0-branch1 41;
#X obj 421 311 vd~ \$0-branch2 67;
#X obj 573 341 vd~ \$0-branch3 101;
#X obj 723 311 vd~ \$0-branch4 137;
#X floatatom 1056 406 5 0 0 0 - - -, f 5;
#X obj 1056 604 line~;
#X obj 1166 604 line~;
#X obj 946 604 line~;
#X obj 1276 604 line~;
#X obj 946 482 * 2;
#X obj 1166 482 * 4;
#X obj 1056 377 r size;
#X floatatom 85 549 5 0 0 0 - - -, f 5;
#X floatatom 195 549 5 0 0 0 - - -, f 5;
#X obj 93 254 r spread;
#X obj 1276 564 pack 0 200;
#X obj 1166 564 pack 0 200;
#X obj 1056 564 pack 0 200;
#X obj 946 564 pack 0 200;
#X obj 1166 514 + 59;
#X obj 1056 524 + 23;
#X obj 946 524 + 67;
#X obj 1276 514 + 41;
#X obj 212 273 delwrite~ \$0-branch1 1000;
#X obj 472 273 delwrite~ \$0-branch2 1000;
#X obj 735 273 delwrite~ \$0-branch3 1000;
#X obj 995 273 delwrite~ \$0-branch4 1000;
#X obj 499 209 rpole~;
#X obj 499 176 *~;
#X obj 541 142 r \$0-low-saturation;
#X obj 556 176 r \$0-damping;
#X obj 239 209 rpole~;
#X obj 239 176 *~;
#X obj 281 142 r \$0-low-saturation;
#X obj 296 176 r \$0-damping;
#X connect 0 0 2 0;
#X connect 1 0 3 0;
#X connect 2 0 73 0;
#X connect 2 0 74 0;
#X connect 3 0 0 0;
#X connect 4 0 1 0;
#X connect 5 0 4 0;
#X connect 6 0 8 0;
#X connect 7 0 8 1;
#X connect 8 0 24 0;
#X connect 8 0 28 0;
#X connect 9 0 11 0;
#X connect 10 0 11 1;
#X connect 11 0 30 0;
#X connect 11 0 34 0;
#X connect 12 0 14 0;
#X connect 13 0 14 1;
#X connect 14 0 25 0;
#X connect 14 0 27 0;
#X connect 15 0 17 0;
#X connect 16 0 17 1;
#X connect 17 0 31 0;
#X connect 17 0 33 0;
#X connect 18 0 19 0;
#X connect 19 0 109 0;
#X connect 20 0 118 0;
#X connect 21 0 23 0;
#X connect 22 0 111 0;
#X connect 23 0 22 0;
#X connect 24 0 26 0;
#X connect 25 0 26 1;
#X connect 26 0 39 0;
#X connect 26 0 54 0;
#X connect 27 0 29 0;
#X connect 28 0 29 1;
#X connect 29 0 42 0;
#X connect 29 0 54 1;
#X connect 30 0 32 0;
#X connect 31 0 32 1;
#X connect 32 0 41 0;
#X connect 32 0 85 0;
#X connect 33 0 35 0;
#X connect 34 0 35 1;
#X connect 35 0 40 0;
#X connect 35 0 85 1;
#X connect 37 0 110 0;
#X connect 38 0 114 0;
#X connect 43 0 20 0;
#X connect 44 0 21 0;
#X connect 45 0 38 0;
#X connect 46 0 48 0;
#X connect 47 0 38 1;
#X connect 48 0 50 0;
#X connect 49 0 112 0;
#X connect 50 0 49 0;
#X connect 51 0 48 1;
#X connect 52 0 21 1;
#X connect 53 0 20 1;
#X connect 54 0 36 0;
#X connect 55 0 6 1;
#X connect 56 0 9 1;
#X connect 57 0 12 1;
#X connect 58 0 15 1;
#X connect 59 0 24 1;
#X connect 60 0 27 1;
#X connect 61 0 30 1;
#X connect 62 0 33 1;
#X connect 63 0 7 1;
#X connect 64 0 10 1;
#X connect 65 0 13 1;
#X connect 66 0 16 1;
#X connect 67 0 34 1;
#X connect 68 0 31 1;
#X connect 69 0 28 1;
#X connect 70 0 25 1;
#X connect 73 0 77 0;
#X connect 74 0 75 0;
#X connect 75 0 76 0;
#X connect 75 0 98 0;
#X connect 76 0 71 0;
#X connect 77 0 78 0;
#X connect 77 0 99 0;
#X connect 78 0 72 0;
#X connect 79 0 23 1;
#X connect 80 0 50 1;
#X connect 81 0 22 1;
#X connect 82 0 49 1;
#X connect 83 0 37 0;
#X connect 85 0 84 0;
#X connect 86 0 6 0;
#X connect 86 0 10 0;
#X connect 87 0 7 0;
#X connect 87 0 9 0;
#X connect 88 0 12 0;
#X connect 88 0 16 0;
#X connect 89 0 15 0;
#X connect 89 0 13 0;
#X connect 90 0 95 0;
#X connect 90 0 96 0;
#X connect 91 0 86 0;
#X connect 92 0 88 0;
#X connect 93 0 87 0;
#X connect 94 0 89 0;
#X connect 95 0 107 0;
#X connect 96 0 105 0;
#X connect 97 0 90 0;
#X connect 100 0 1 0;
#X connect 101 0 94 0;
#X connect 102 0 92 0;
#X connect 103 0 91 0;
#X connect 104 0 93 0;
#X connect 105 0 102 0;
#X connect 105 0 108 0;
#X connect 106 0 103 0;
#X connect 107 0 104 0;
#X connect 107 0 106 0;
#X connect 108 0 101 0;
#X connect 113 0 37 1;
#X connect 114 0 113 0;
#X connect 115 0 114 1;
#X connect 116 0 113 1;
#X connect 117 0 19 1;
#X connect 118 0 117 0;
#X connect 119 0 118 1;
#X connect 120 0 117 1;
#X restore 47 389 pd test;
#X obj 506 258 - 1;
#X obj 506 322 * -1;
#X obj 576 322 s \$0-low-saturation;
#X obj 506 351 s \$0-damping;
#X obj 246 383 sin;
#X floatatom 246 295 0 0 0 0 - - -;
#X obj 246 355 * 6.28319;
#X obj 246 325 / 360;
#N canvas 29 52 739 450 allpassfilter 0;
#X obj 114 70 loadbang;
#X obj 114 166 loadbang;
#X obj 114 259 loadbang;
#X obj 46 37 inlet~;
#X obj 276 37 inlet~;
#X obj 46 367 outlet~;
#X obj 276 367 outlet~;
#X obj 344 70 loadbang;
#X obj 344 166 loadbang;
#X obj 344 259 loadbang;
#X obj 276 135 allpassfilter~;
#X msg 183 104 0.7;
#X msg 183 198 0.7;
#X msg 183 291 0.7;
#X msg 413 291 0.7;
#X msg 413 198 0.7;
#X msg 413 104 0.7;
#X obj 46 322 allpassfilter~;
#X obj 46 229 allpassfilter~;
#X obj 46 135 allpassfilter~;
#X obj 276 322 allpassfilter~;
#X obj 276 229 allpassfilter~;
#X msg 114 198 17;
#X msg 114 291 5;
#X msg 114 104 53;
#X msg 344 104 41;
#X msg 344 198 29;
#X msg 344 291 11;
#X connect 0 0 11 0;
#X connect 0 0 24 0;
#X connect 1 0 12 0;
#X connect 1 0 22 0;
#X connect 2 0 13 0;
#X connect 2 0 23 0;
#X connect 3 0 19 0;
#X connect 4 0 10 0;
#X connect 7 0 16 0;
#X connect 7 0 25 0;
#X connect 8 0 15 0;
#X connect 8 0 26 0;
#X connect 9 0 27 0;
#X connect 9 0 14 0;
#X connect 10 0 21 0;
#X connect 11 0 19 2;
#X connect 12 0 18 2;
#X connect 13 0 17 2;
#X connect 14 0 20 2;
#X connect 15 0 21 2;
#X connect 16 0 10 2;
#X connect 17 0 5 0;
#X connect 18 0 17 0;
#X connect 19 0 18 0;
#X connect 20 0 6 0;
#X connect 21 0 20 0;
#X connect 22 0 18 1;
#X connect 23 0 17 1;
#X connect 24 0 19 1;
#X connect 25 0 10 1;
#X connect 26 0 21 1;
#X connect 27 0 20 1;
#X restore 47 345 pd allpassfilter;
#X obj 246 444 line~;
#X obj 246 414 pack 0 20;
#X obj 343 386 s size;
#X text 582 281 lopass;
#X text 652 281 hipass;
#X obj 413 364 s spread;
#X obj 413 257 * 90;
#X obj 246 264 + 0;
#X obj 246 233 * 90;
#N canvas 245 23 1032 588 EQ 0;
#N canvas 4 22 1276 703 using 0;
#X obj 196 169 outlet~;
#X obj 284 329 outlet~;
#X obj 316 507 outlet~;
#X obj 196 70 biquad~ 1.86972 -0.872325 0.000650245 0.00130049 0.000650245
;
#X text 315 49 lo x3;
#X obj 196 100 biquad~ 1.86972 -0.872325 0.000650245 0.00130049 0.000650245
;
#X obj 196 130 biquad~ 1.86972 -0.872325 0.000650245 0.00130049 0.000650245
;
#X obj 284 232 biquad~ 1.36591 -0.385279 0.307361 0 -0.307361;
#X text 419 212 mid x3;
#X obj 284 262 biquad~ 1.36591 -0.385279 0.307361 0 -0.307361;
#X obj 284 292 biquad~ 1.36591 -0.385279 0.307361 0 -0.307361;
#X obj 316 441 biquad~ 1.63386 -0.729864 0.840931 -1.68186 0.840931
;
#X text 536 419 hi x2;
#X obj 316 471 biquad~ 1.63386 -0.729864 0.840931 -1.68186 0.840931
;
#X obj 125 25 inlet~;
#X connect 3 0 5 0;
#X connect 5 0 6 0;
#X connect 6 0 0 0;
#X connect 7 0 9 0;
#X connect 9 0 10 0;
#X connect 10 0 1 0;
#X connect 11 0 13 0;
#X connect 13 0 2 0;
#X connect 14 0 3 0;
#X connect 14 0 7 0;
#X connect 14 0 11 0;
#X restore 220 310 pd using GGEE filter objects;
#N canvas 362 92 528 469 output_mixer 0;
#X obj 71 -19 inlet~ bass;
#X obj 211 -19 inlet~ mids;
#X obj 347 -19 inlet~ highs;
#X obj 98 35 inlet bass;
#X obj 238 36 inlet mids;
#X obj 374 36 inlet highs;
#X obj 71 127 outlet~;
#X obj 211 75 *~;
#X obj 347 75 *~;
#X obj 71 75 *~;
#X connect 0 0 9 0;
#X connect 1 0 7 0;
#X connect 2 0 8 0;
#X connect 3 0 9 1;
#X connect 4 0 7 1;
#X connect 5 0 8 1;
#X connect 7 0 6 0;
#X connect 8 0 6 0;
#X connect 9 0 6 0;
#X restore 220 366 pd output_mixer;
#X obj 521 274 +;
#X obj 521 224 t b f;
#X obj 220 261 inlet~;
#X obj 220 398 outlet~;
#X floatatom 521 150 5 0 1 0 - - -, f 5;
#X floatatom 446 150 5 0 1 0 - - -, f 5;
#X floatatom 521 310 5 0 1 0 - - -, f 5;
#X obj 446 106 inlet;
#X obj 521 106 inlet;
#X obj 521 186 * 1;
#X obj 446 186 * 1;
#X connect 0 0 1 0;
#X connect 0 1 1 2;
#X connect 0 2 1 4;
#X connect 1 0 5 0;
#X connect 2 0 8 0;
#X connect 3 0 2 0;
#X connect 3 1 2 1;
#X connect 4 0 0 0;
#X connect 6 0 1 5;
#X connect 6 0 11 0;
#X connect 7 0 1 1;
#X connect 7 0 12 0;
#X connect 8 0 1 3;
#X connect 9 0 7 0;
#X connect 10 0 6 0;
#X connect 11 0 3 0;
#X connect 12 0 2 0;
#X restore 47 459 pd EQ;
#X floatatom 506 159 5 0 1023 0 - - -, f 5;
#X floatatom 343 159 5 0 1023 0 - - -, f 5;
#X floatatom 246 159 5 0 1023 0 - - -, f 5;
#X floatatom 413 159 5 0 1023 0 - - -, f 5;
#X text 503 373 Frequency Response;
#X text 340 413 Room Size;
#X text 243 505 Reverb Decay;
#X obj 47 306 adc~;
#X obj 47 162 loadbang;
#X obj 47 232 tgl 15 0 empty empty empty 17 7 0 10 -262144 -1 -1 1
1;
#X msg 47 255 \; pd dsp \$1;
#X obj 246 195 / 1023;
#X obj 413 195 / 1023;
#X obj 343 195 / 1023;
#X obj 506 195 / 1023;
#X obj 582 195 / 1023;
#X obj 652 195 / 1023;
#X obj 47 200 delay 50;
#N canvas 246 22 1032 588 EQ 0;
#N canvas 4 22 1276 703 using 0;
#X obj 196 169 outlet~;
#X obj 284 329 outlet~;
#X obj 316 507 outlet~;
#X obj 196 70 biquad~ 1.86972 -0.872325 0.000650245 0.00130049 0.000650245
;
#X text 315 49 lo x3;
#X obj 196 100 biquad~ 1.86972 -0.872325 0.000650245 0.00130049 0.000650245
;
#X obj 196 130 biquad~ 1.86972 -0.872325 0.000650245 0.00130049 0.000650245
;
#X obj 284 232 biquad~ 1.36591 -0.385279 0.307361 0 -0.307361;
#X text 419 212 mid x3;
#X obj 284 262 biquad~ 1.36591 -0.385279 0.307361 0 -0.307361;
#X obj 284 292 biquad~ 1.36591 -0.385279 0.307361 0 -0.307361;
#X obj 316 441 biquad~ 1.63386 -0.729864 0.840931 -1.68186 0.840931
;
#X text 536 419 hi x2;
#X obj 316 471 biquad~ 1.63386 -0.729864 0.840931 -1.68186 0.840931
;
#X obj 125 25 inlet~;
#X connect 3 0 5 0;
#X connect 5 0 6 0;
#X connect 6 0 0 0;
#X connect 7 0 9 0;
#X connect 9 0 10 0;
#X connect 10 0 1 0;
#X connect 11 0 13 0;
#X connect 13 0 2 0;
#X connect 14 0 3 0;
#X connect 14 0 7 0;
#X connect 14 0 11 0;
#X restore 220 310 pd using GGEE filter objects;
#N canvas 362 92 528 469 output_mixer 0;
#X obj 71 -19 inlet~ bass;
#X obj 211 -19 inlet~ mids;
#X obj 347 -19 inlet~ highs;
#X obj 98 35 inlet bass;
#X obj 238 36 inlet mids;
#X obj 374 36 inlet highs;
#X obj 71 127 outlet~;
#X obj 211 75 *~;
#X obj 347 75 *~;
#X obj 71 75 *~;
#X connect 0 0 9 0;
#X connect 1 0 7 0;
#X connect 2 0 8 0;
#X connect 3 0 9 1;
#X connect 4 0 7 1;
#X connect 5 0 8 1;
#X connect 7 0 6 0;
#X connect 8 0 6 0;
#X connect 9 0 6 0;
#X restore 220 366 pd output_mixer;
#X obj 521 274 +;
#X obj 521 224 t b f;
#X obj 220 261 inlet~;
#X obj 220 398 outlet~;
#X floatatom 521 150 5 0 1 0 - - -, f 5;
#X floatatom 446 150 5 0 1 0 - - -, f 5;
#X floatatom 521 310 5 0 1 0 - - -, f 5;
#X obj 446 106 inlet;
#X obj 521 106 inlet;
#X obj 446 186 * 1;
#X obj 521 186 * 1;
#X connect 0 0 1 0;
#X connect 0 1 1 2;
#X connect 0 2 1 4;
#X connect 1 0 5 0;
#X connect 2 0 8 0;
#X connect 3 0 2 0;
#X connect 3 1 2 1;
#X connect 4 0 0 0;
#X connect 6 0 1 5;
#X connect 6 0 12 0;
#X connect 7 0 1 1;
#X connect 7 0 11 0;
#X connect 8 0 1 3;
#X connect 9 0 7 0;
#X connect 10 0 6 0;
#X connect 11 0 2 0;
#X connect 12 0 3 0;
#X restore 114 459 pd EQ;
#X obj 47 492 dac~;
#X obj 652 255 s hip;
#X obj 582 255 s hop;
#X obj 70 425 r hop;
#X obj 161 425 r hip;
#X text 410 393 Stereo Spreading;
#X floatatom 652 159 5 0 1023 0 - - -, f 5;
#X floatatom 582 159 5 0 1023 0 - - -, f 5;
#X obj 47 134 readsf~ 2;
#X obj 47 42 openpanel;
#X obj 47 17 bng 15 250 50 0 empty empty empty 0 -6 0 8 -262144 -1
-1;
#X text 73 18 load a sample;
#X msg 47 84 open \$1;
#X msg 146 84 start;
#X obj 343 258 * 150;
#X connect 1 0 20 0;
#X connect 1 1 39 0;
#X connect 2 0 3 0;
#X connect 3 0 5 0;
#X connect 6 0 12 0;
#X connect 7 0 9 0;
#X connect 8 0 6 0;
#X connect 9 0 8 0;
#X connect 10 0 1 0;
#X connect 10 1 1 1;
#X connect 11 0 0 0;
#X connect 12 0 11 0;
#X connect 17 0 16 0;
#X connect 18 0 7 0;
#X connect 19 0 18 0;
#X connect 20 0 40 0;
#X connect 21 0 35 0;
#X connect 22 0 34 0;
#X connect 23 0 32 0;
#X connect 24 0 33 0;
#X connect 29 0 38 0;
#X connect 30 0 31 0;
#X connect 32 0 19 0;
#X connect 33 0 17 0;
#X connect 34 0 54 0;
#X connect 35 0 2 0;
#X connect 35 0 4 0;
#X connect 36 0 42 0;
#X connect 37 0 41 0;
#X connect 38 0 30 0;
#X connect 39 0 40 1;
#X connect 43 0 39 1;
#X connect 43 0 20 1;
#X connect 44 0 39 2;
#X connect 44 0 20 2;
#X connect 46 0 37 0;
#X connect 47 0 36 0;
#X connect 48 0 10 0;
#X connect 48 1 10 1;
#X connect 49 0 52 0;
#X connect 50 0 49 0;
#X connect 52 0 48 0;
#X connect 53 0 48 0;
#X connect 54 0 13 0;
